<svg xmlns="http://www.w3.org/2000/svg" viewBox="0 0 763.89 54.6"><defs><style>.cls-1{fill:#7c7c7c;}</style></defs><g id="Layer_2" data-name="Layer 2"><g id="Layer_1-2" data-name="Layer 1"><path d="M27,54.4A27.82,27.82,0,0,1,13,51a24.88,24.88,0,0,1-9.54-9.58A28,28,0,0,1,0,27.36,29.22,29.22,0,0,1,3.27,13.3a24.4,24.4,0,0,1,9-9.58A24.72,24.72,0,0,1,25.5.22,24.14,24.14,0,0,1,38.39,3.57a22.76,22.76,0,0,1,8.51,9.29,29.45,29.45,0,0,1,3,13.53,3.34,3.34,0,0,1-1,2.48,3.62,3.62,0,0,1-2.53.92H5.07V23.56H47.2l-4.19,3a22.44,22.44,0,0,0-2-10.12,16.71,16.71,0,0,0-6.08-7,17,17,0,0,0-9.39-2.53,17.78,17.78,0,0,0-9.77,2.64A17.5,17.5,0,0,0,9.3,16.8,23.49,23.49,0,0,0,7,27.36a20.94,20.94,0,0,0,2.57,10.5,19,19,0,0,0,7.07,7.19A20,20,0,0,0,27,47.69a22,22,0,0,0,7-1.21,17.27,17.27,0,0,0,5.69-3.07,3.88,3.88,0,0,1,2.44-.92,3.34,3.34,0,0,1,2.33.73,3.6,3.6,0,0,1,1.31,2.53,2.84,2.84,0,0,1-1.11,2.3,26.76,26.76,0,0,1-8.18,4.52A27.72,27.72,0,0,1,27,54.4Z"/><path d="M84.85,54.4a27.65,27.65,0,0,1-13.92-3.5,25.44,25.44,0,0,1-9.63-9.63,27.53,27.53,0,0,1-3.5-13.91,27.71,27.71,0,0,1,3.5-14,25.31,25.31,0,0,1,9.63-9.63A27.33,27.33,0,0,1,84.85.22a27.13,27.13,0,0,1,13.86,3.5,25.53,25.53,0,0,1,9.58,9.63,28.32,28.32,0,0,1,3.6,14,27.33,27.33,0,0,1-3.55,13.91,26,26,0,0,1-9.63,9.63A27.33,27.33,0,0,1,84.85,54.4Zm0-6.81A19.68,19.68,0,0,0,95,45a18.76,18.76,0,0,0,7-7.2,21.26,21.26,0,0,0,2.53-10.41A21.62,21.62,0,0,0,102,16.9a18.55,18.55,0,0,0-7-7.25,20.75,20.75,0,0,0-20.23,0,18.76,18.76,0,0,0-7,7.25A21.07,21.07,0,0,0,65.2,27.36a20.72,20.72,0,0,0,2.58,10.41,19,19,0,0,0,7,7.2A19.62,19.62,0,0,0,84.85,47.59Z"/><path d="M145.07,54.4a34.77,34.77,0,0,1-11.39-1.94,21.36,21.36,0,0,1-9.14-5.84,3.1,3.1,0,0,1-.88-2.63,4,4,0,0,1,1.46-2.53,3.9,3.9,0,0,1,5.26.49,14.87,14.87,0,0,0,6.17,4.18,23.76,23.76,0,0,0,8.52,1.46c4.79,0,8.27-.82,10.41-2.48a7.65,7.65,0,0,0,3.3-6,6.81,6.81,0,0,0-3.3-5.79q-3.33-2.28-10.9-3.55-9.83-1.56-14.4-5.45a11.77,11.77,0,0,1-4.57-9.24,12.82,12.82,0,0,1,2.63-8.27,15.81,15.81,0,0,1,7-5A27,27,0,0,1,144.87.22a26.06,26.06,0,0,1,11.24,2.23,20.71,20.71,0,0,1,7.64,6,3.47,3.47,0,0,1,.77,2.63A3.24,3.24,0,0,1,163,13.35a4,4,0,0,1-2.68.44,4.44,4.44,0,0,1-2.58-1.41,14.91,14.91,0,0,0-5.64-4.14,19.48,19.48,0,0,0-7.39-1.31,14.89,14.89,0,0,0-8.56,2.19A6.5,6.5,0,0,0,133.85,18c.09.16.2.32.31.48a9.9,9.9,0,0,0,4.18,2.91,37.28,37.28,0,0,0,8.32,2.14,36.59,36.59,0,0,1,11.49,3.49,15,15,0,0,1,6,5.35A13,13,0,0,1,166,39.05a12.79,12.79,0,0,1-2.67,8,17.68,17.68,0,0,1-7.4,5.4A28.28,28.28,0,0,1,145.07,54.4Z"/><path d="M202.66,54.4A26.34,26.34,0,0,1,189,50.85a25.65,25.65,0,0,1-9.44-9.68,27.58,27.58,0,0,1-3.45-13.81,28.64,28.64,0,0,1,3.29-13.91,25,25,0,0,1,9-9.68A24.53,24.53,0,0,1,201.69.22a25.36,25.36,0,0,1,10.94,2.33,24.79,24.79,0,0,1,8.8,7,2.64,2.64,0,0,1,.78,2.5,3.87,3.87,0,0,1-1.65,2.29,3.06,3.06,0,0,1-2.38.54,4,4,0,0,1-2.29-1.41,18.06,18.06,0,0,0-14.2-6.42,17.43,17.43,0,0,0-9.59,2.63,17.64,17.64,0,0,0-6.42,7.2,23.12,23.12,0,0,0-2.28,10.51,21.81,21.81,0,0,0,2.43,10.41,18.14,18.14,0,0,0,6.81,7.2,19.18,19.18,0,0,0,10,2.62,22.74,22.74,0,0,0,7-1,15.79,15.79,0,0,0,5.6-3.16,4.21,4.21,0,0,1,2.43-1.07,3.19,3.19,0,0,1,2.34.78,3.81,3.81,0,0,1,1.31,2.43,2.62,2.62,0,0,1-.93,2.34Q213.26,54.39,202.66,54.4Z"/><path class="cls-1" d="M294.15,7.81a26,26,0,0,0-8.65-5.76,29.93,29.93,0,0,0-21.72,0,25.63,25.63,0,0,0-8.62,5.72,26.17,26.17,0,0,0-5.65,8.65,28.43,28.43,0,0,0-2,10.83,28.66,28.66,0,0,0,2,10.9,25.67,25.67,0,0,0,14.27,14.37,29.93,29.93,0,0,0,21.72,0,26.4,26.4,0,0,0,8.65-5.73,26,26,0,0,0,5.69-8.64,29.05,29.05,0,0,0,2-10.9,28.82,28.82,0,0,0-2-10.83A25.81,25.81,0,0,0,294.15,7.81Zm.82,28.3a21.84,21.84,0,0,1-4.6,7.08,20.75,20.75,0,0,1-7,4.7,23.82,23.82,0,0,1-17.5,0,20.56,20.56,0,0,1-7-4.7,21.52,21.52,0,0,1-4.6-7.08,23.15,23.15,0,0,1-1.55-8.82,23,23,0,0,1,1.63-8.75,21.31,21.31,0,0,1,4.6-7.08,20.56,20.56,0,0,1,7-4.7,23.72,23.72,0,0,1,17.5,0,20.75,20.75,0,0,1,7,4.7,21.63,21.63,0,0,1,4.6,7.08,23.35,23.35,0,0,1,1.63,8.75A23.63,23.63,0,0,1,295,36.11Z"/><path class="cls-1" d="M339.44,25.05a12.79,12.79,0,0,0,5.17-4.36,11.21,11.21,0,0,0,2-6.53,12.61,12.61,0,0,0-1.94-6.95,13.63,13.63,0,0,0-5.24-4.73A15.56,15.56,0,0,0,332,.73H315.47a2.56,2.56,0,0,0-2.66,2.47.6.6,0,0,0,0,.19V51.26a2.39,2.39,0,0,0,.85,1.94,3.25,3.25,0,0,0,2.15.72h17.36a17.63,17.63,0,0,0,8.48-2,15,15,0,0,0,5.83-5.55,15.82,15.82,0,0,0,2.11-8.17,13,13,0,0,0-2.8-8.55A14,14,0,0,0,339.44,25.05ZM318.12,5.84H332A10.46,10.46,0,0,1,338.72,8a7.45,7.45,0,0,1,2.65,6.2,8.17,8.17,0,0,1-2.65,6.47A9.94,9.94,0,0,1,332,22.93H318.12Zm24.79,38a9.86,9.86,0,0,1-4,3.68,12.64,12.64,0,0,1-5.79,1.29H318.12V28.05h15.05A12.76,12.76,0,0,1,339,29.31a9.57,9.57,0,0,1,4,3.54,9.84,9.84,0,0,1,1.43,5.35A10.85,10.85,0,0,1,342.91,43.84Z"/><path class="cls-1" d="M377.37,23.68a25.54,25.54,0,0,1-7.59-2.08,9.64,9.64,0,0,1-4.06-3.33,7.74,7.74,0,0,1-1.22-4.22,7.56,7.56,0,0,1,3.27-6.64,14.79,14.79,0,0,1,8.65-2.36,15.63,15.63,0,0,1,5.24.88,11.42,11.42,0,0,1,3.71,2.22,15.68,15.68,0,0,1,2.56,3,2.68,2.68,0,0,0,1.6,1.29,2.76,2.76,0,0,0,2.07-.13,2.45,2.45,0,0,0,1.2-1.57,2.76,2.76,0,0,0-.45-2.11,18,18,0,0,0-3.71-4.26A18.43,18.43,0,0,0,376.49.05a22.39,22.39,0,0,0-8.93,1.67,14.11,14.11,0,0,0-6.09,4.73,11.93,11.93,0,0,0-2.21,7.22,12.52,12.52,0,0,0,4.46,9.77q4.5,4,12.46,4.94c4.36.54,7.56,1.82,9.61,3.81a9.71,9.71,0,0,1,3.06,7.15,9.45,9.45,0,0,1-1.6,5.55,10.12,10.12,0,0,1-4.39,3.48,16.53,16.53,0,0,1-6.4,1.19,20.24,20.24,0,0,1-6-.85,14.29,14.29,0,0,1-4.7-2.42,10.87,10.87,0,0,1-3-3.54,3.23,3.23,0,0,0-1.4-1.43,2.45,2.45,0,0,0-1.87-.21,2.67,2.67,0,0,0-1.74,1.26,2,2,0,0,0,0,2,15.58,15.58,0,0,0,4.15,5.38,19.33,19.33,0,0,0,6.44,3.58,25.08,25.08,0,0,0,8.07,1.26,23.11,23.11,0,0,0,6.91-1,17.38,17.38,0,0,0,5.65-3,13.33,13.33,0,0,0,3.75-4.8A15.48,15.48,0,0,0,394,39.26a13.83,13.83,0,0,0-4.12-10.39Q385.89,24.89,377.37,23.68Z"/><path class="cls-1" d="M439.82,5.84a2.66,2.66,0,0,0,1.9-.79,2.45,2.45,0,0,0,.79-1.77,2.42,2.42,0,0,0-.79-1.83,2.65,2.65,0,0,0-1.9-.72H407.88a2.56,2.56,0,0,0-2.66,2.47.6.6,0,0,0,0,.19V51.26a2.57,2.57,0,0,0,2.47,2.66h32.13a2.71,2.71,0,0,0,1.87-.72,2.47,2.47,0,0,0,.79-1.87,2.42,2.42,0,0,0-.79-1.77,2.63,2.63,0,0,0-1.87-.75H410.54v-19h21.31a2.6,2.6,0,0,0,1.87-4.44,2.55,2.55,0,0,0-1.91-.75H410.54V5.84Z"/><path class="cls-1" d="M474.41,32a20.35,20.35,0,0,0,2.18-1,15.27,15.27,0,0,0,8.31-13.9,16.49,16.49,0,0,0-2.18-8.49,15.37,15.37,0,0,0-6.1-5.79,18.39,18.39,0,0,0-8.9-2.08H455a2.57,2.57,0,0,0-2.66,2.48,1.09,1.09,0,0,0,0,.18V51.26a2.66,2.66,0,0,0,5.31.32V33.05H468.9l12.24,19.51a3.1,3.1,0,0,0,.91,1,2.62,2.62,0,0,0,1.4.34,2.59,2.59,0,0,0,2.49-1.23,2.79,2.79,0,0,0-.38-2.86Zm-16.75-4V5.84h10.06a13,13,0,0,1,6.16,1.43,10.92,10.92,0,0,1,4.26,4,11.11,11.11,0,0,1,1.58,5.87,10.35,10.35,0,0,1-1.57,5.59,11,11,0,0,1-4.26,3.84,13.18,13.18,0,0,1-6.16,1.4Z"/><path class="cls-1" d="M534.82,1.92a2.1,2.1,0,0,0-2.1-1.19,2.85,2.85,0,0,0-1.64.41,2.9,2.9,0,0,0-1,1.43l-18,43-18-43.16a2.54,2.54,0,0,0-2.46-1.7,2.37,2.37,0,0,0-2.28,1.12,3.44,3.44,0,0,0,.1,3l20.18,47.39a2.55,2.55,0,0,0,2.45,1.7,2.67,2.67,0,0,0,1.37-.38,3,3,0,0,0,1-1.32L534.72,4.61A3.32,3.32,0,0,0,534.82,1.92Z"/><path class="cls-1" d="M558.24,2.57A2.56,2.56,0,0,0,555.72.73a2.61,2.61,0,0,0-2.59,1.84l-20,47.53a2.74,2.74,0,0,0,.13,2.52,2.34,2.34,0,0,0,2.25,1.3,2.8,2.8,0,0,0,1.46-.41,2.68,2.68,0,0,0,1-1.23l4.58-11H568.9l4.55,11a2.93,2.93,0,0,0,1.06,1.23,2.75,2.75,0,0,0,1.46.41,2.67,2.67,0,0,0,2.62-2.7,2.91,2.91,0,0,0-.23-1ZM544.43,36.69,555.72,9.41,567,36.69Z"/><path class="cls-1" d="M615.18.73H577.52a2.38,2.38,0,0,0-1.77.68,2.34,2.34,0,0,0-.68,1.77,2.24,2.24,0,0,0,.68,1.7,2.4,2.4,0,0,0,1.77.69h16.14V51.26a2.68,2.68,0,0,0,2.65,2.66,2.55,2.55,0,0,0,1.91-.79,2.63,2.63,0,0,0,.75-1.87V5.57h16.21A2.44,2.44,0,0,0,617,4.88a2.35,2.35,0,0,0,.68-1.7A2.46,2.46,0,0,0,617,1.41,2.41,2.41,0,0,0,615.18.73Z"/><path class="cls-1" d="M666.12,7.81a26.22,26.22,0,0,0-8.65-5.76,29.9,29.9,0,0,0-21.75,0,25.62,25.62,0,0,0-14.27,14.37,28.43,28.43,0,0,0-2,10.83,28.66,28.66,0,0,0,2,10.9,25.71,25.71,0,0,0,14.27,14.41,29.93,29.93,0,0,0,21.72,0,26.55,26.55,0,0,0,8.65-5.73,25.81,25.81,0,0,0,5.68-8.64,29.05,29.05,0,0,0,2-10.9,28.82,28.82,0,0,0-2-10.83A25.82,25.82,0,0,0,666.12,7.81Zm.82,28.3a22,22,0,0,1-4.6,7.08,21.15,21.15,0,0,1-7,4.7,23.82,23.82,0,0,1-17.5,0,20.56,20.56,0,0,1-7-4.7,21.52,21.52,0,0,1-4.6-7.08,23.2,23.2,0,0,1-1.64-8.82,23,23,0,0,1,1.64-8.75,21.31,21.31,0,0,1,4.6-7.08,20.56,20.56,0,0,1,7-4.7,23.72,23.72,0,0,1,17.5,0,20.85,20.85,0,0,1,7,4.7,21.73,21.73,0,0,1,4.6,7.08,23.55,23.55,0,0,1,1.63,8.75,23.78,23.78,0,0,1-1.63,8.82Z"/><path class="cls-1" d="M706.84,32A20.35,20.35,0,0,0,709,31a15.27,15.27,0,0,0,8.31-13.9,16.48,16.48,0,0,0-2.21-8.54A15.37,15.37,0,0,0,709,2.76a18.29,18.29,0,0,0-8.85-2H687.43a2.57,2.57,0,0,0-2.66,2.48,1.09,1.09,0,0,0,0,.18V51.26a2.66,2.66,0,0,0,5.31.32V33.05h11.25l12.24,19.51a3.25,3.25,0,0,0,.92,1,3.13,3.13,0,0,0,3.89-.89,2.79,2.79,0,0,0-.38-2.86Zm-16.75-4V5.84h10.08a13,13,0,0,1,6.16,1.43,10.84,10.84,0,0,1,5.82,9.89,10.34,10.34,0,0,1-1.56,5.59,11.09,11.09,0,0,1-4.26,3.84,13.18,13.18,0,0,1-6.16,1.4Z"/><path class="cls-1" d="M763.88,3a2.58,2.58,0,0,0-.75-1.6,2.17,2.17,0,0,0-1.6-.65,2.62,2.62,0,0,0-1.4.34,3.07,3.07,0,0,0-1,1.09L742.19,29.35l-17-27.3a3.47,3.47,0,0,0-.92-.95A2.25,2.25,0,0,0,723,.76a2.35,2.35,0,0,0-1.7.61,2.64,2.64,0,0,0-.34,3.57L739.46,34.3v17A2.63,2.63,0,0,0,742.07,54a2.67,2.67,0,0,0,1.92-.79,2.63,2.63,0,0,0,.78-1.87v-17l18.6-29.36A3,3,0,0,0,763.88,3Z"/></g></g></svg>