<svg xmlns="http://www.w3.org/2000/svg" width="6.915" height="10.196" viewBox="0 0 6.915 10.196"><defs><style>.a{fill:#b2b2b2;}</style></defs><g transform="translate(6.915 10.196) rotate(180)"><g transform="translate(0 0)"><g transform="translate(0.004 0)"><path d="M0,3.76,3.182,0,6.365,3.76Z" transform="translate(0.269 0.288)"/><path d="M.465,4.234c.359-.423.716-.846,1.076-1.269Q2.4,1.953,3.255.941c.133-.155.263-.31.4-.467H3.26c.359.423.716.846,1.076,1.269Q5.194,2.755,6.05,3.767c.133.155.263.31.4.467.066-.158.13-.315.2-.473H.277a.277.277,0,0,0,0,.553H6.642a.281.281,0,0,0,.2-.473C6.479,3.418,6.122,3,5.763,2.572Q4.9,1.56,4.048.548c-.133-.155-.263-.31-.4-.467a.275.275,0,0,0-.39,0C2.9.5,2.547.927,2.188,1.35Q1.329,2.362.473,3.374c-.133.155-.263.31-.4.467a.283.283,0,0,0,0,.39A.27.27,0,0,0,.465,4.234Z"/></g><g transform="translate(0 5.882)"><path class="a" d="M0,0,3.182,3.76,6.365,0Z" transform="translate(0.273 0.268)"/><path class="a" d="M.079.473C.439.9.8,1.319,1.155,1.742q.859,1.012,1.714,2.024c.133.155.263.31.4.467a.275.275,0,0,0,.39,0c.359-.423.716-.846,1.076-1.269Q5.589,1.952,6.444.94c.133-.155.263-.31.4-.467A.281.281,0,0,0,6.643,0H.278a.277.277,0,0,0,0,.553H6.643C6.577.4,6.513.238,6.447.08,6.088.5,5.731.926,5.372,1.349Q4.513,2.361,3.657,3.373c-.133.155-.263.31-.4.467h.39c-.359-.423-.716-.846-1.076-1.269Q1.718,1.559.862.548C.729.393.6.238.466.08a.278.278,0,0,0-.39,0A.287.287,0,0,0,.079.473Z"/></g></g></g></svg>