<svg xmlns="http://www.w3.org/2000/svg" width="6.914" height="10.196" viewBox="0 0 6.914 10.196"><defs><style>.a{fill:#b2b2b2;}</style></defs><g transform="translate(0 0)"><g transform="translate(0.004 0)"><path class="a" d="M134.9,79.76,138.082,76l3.182,3.76Z" transform="translate(-134.631 -75.712)"/><path class="a" d="M125.649,69.809c.359-.423.716-.846,1.076-1.269q.859-1.012,1.714-2.024c.133-.155.263-.31.4-.467h-.39c.359.423.716.846,1.076,1.269q.859,1.012,1.714,2.024c.133.155.263.31.4.467.066-.158.13-.315.2-.473h-6.365a.277.277,0,0,0,0,.553h6.365a.281.281,0,0,0,.2-.473c-.359-.423-.716-.846-1.076-1.269q-.859-1.012-1.714-2.024c-.133-.155-.263-.31-.4-.467a.275.275,0,0,0-.39,0c-.359.423-.716.846-1.076,1.269q-.859,1.012-1.714,2.024c-.133.155-.263.31-.4.467a.283.283,0,0,0,0,.39A.27.27,0,0,0,125.649,69.809Z" transform="translate(-125.184 -65.575)"/></g><g transform="translate(0 5.882)"><path class="a" d="M134.9,288l3.182,3.76,3.182-3.76Z" transform="translate(-134.627 -287.732)"/><path class="a" d="M125.111,278.773c.359.423.716.846,1.076,1.269q.859,1.012,1.714,2.024c.133.155.263.31.4.467a.275.275,0,0,0,.39,0c.359-.423.716-.846,1.076-1.269q.859-1.012,1.714-2.024c.133-.155.263-.31.4-.467a.281.281,0,0,0-.2-.473H125.31a.277.277,0,0,0,0,.553h6.365c-.066-.158-.13-.315-.2-.473-.359.423-.716.846-1.076,1.269q-.859,1.012-1.714,2.024c-.133.155-.263.31-.4.467h.39c-.359-.423-.716-.846-1.076-1.269q-.859-1.012-1.714-2.024c-.133-.155-.263-.31-.4-.467a.278.278,0,0,0-.39,0A.287.287,0,0,0,125.111,278.773Z" transform="translate(-125.031 -278.3)"/></g></g></svg>